<?xml version="1.0" encoding="UTF-8" standalone="no"?>
<!-- Created with Inkscape (http://www.inkscape.org/) -->
<svg
   xmlns:dc="http://purl.org/dc/elements/1.1/"
   xmlns:cc="http://creativecommons.org/ns#"
   xmlns:rdf="http://www.w3.org/1999/02/22-rdf-syntax-ns#"
   xmlns:svg="http://www.w3.org/2000/svg"
   xmlns="http://www.w3.org/2000/svg"
   xmlns:sodipodi="http://sodipodi.sourceforge.net/DTD/sodipodi-0.dtd"
   xmlns:inkscape="http://www.inkscape.org/namespaces/inkscape"
   version="1.0"
   width="500"
   height="500"
   viewBox="0 0 1 1"
   id="svg17424"
   sodipodi:version="0.32"
   inkscape:version="0.46"
   sodipodi:docname="superf4.svg"
   inkscape:output_extension="org.inkscape.output.svg.inkscape">
  <metadata
     id="metadata9">
    <rdf:RDF>
      <cc:Work
         rdf:about="">
        <dc:format>image/svg+xml</dc:format>
        <dc:type
           rdf:resource="http://purl.org/dc/dcmitype/StillImage" />
      </cc:Work>
    </rdf:RDF>
  </metadata>
  <sodipodi:namedview
     inkscape:window-height="948"
     inkscape:window-width="1207"
     inkscape:pageshadow="2"
     inkscape:pageopacity="0.0"
     guidetolerance="10.0"
     gridtolerance="10.0"
     objecttolerance="10.0"
     borderopacity="1.0"
     bordercolor="#666666"
     pagecolor="#ffffff"
     id="base"
     showgrid="false"
     inkscape:zoom="1.3067333"
     inkscape:cx="299.4724"
     inkscape:cy="192.60087"
     inkscape:window-x="256"
     inkscape:window-y="23"
     inkscape:current-layer="svg17424" />
  <defs
     id="defs17519">
    <inkscape:perspective
       sodipodi:type="inkscape:persp3d"
       inkscape:vp_x="0 : 250 : 1"
       inkscape:vp_y="0 : 1000 : 0"
       inkscape:vp_z="500 : 250 : 1"
       inkscape:persp3d-origin="250 : 166.66667 : 1"
       id="perspective11" />
  </defs>
  <title
     id="title17426">SVG drawing</title>
  <desc
     id="desc17428">This was produced by version 4.1 of GNU libplot, a free library for exporting 2-D vector graphics.</desc>
  <path
     d="M 0.50207452,0.14466713 C 0.39755644,0.14140741 0.29665366,0.19736654 0.26699784,0.3085588 C 0.25072351,0.36107586 0.26374314,0.40037443 0.28688893,0.43985304 C 0.29014384,0.44963219 0.29629223,0.4590492 0.29954693,0.46882836 C 0.29629223,0.48186724 0.2928563,0.4987091 0.28960138,0.5150077 C 0.28634648,0.53456581 0.29339875,0.55086484 0.30316347,0.5639035 C 0.30641838,0.56716323 0.30931166,0.57368267 0.31582147,0.583824 C 0.32884111,0.59360317 0.34186094,0.6095398 0.34837056,0.64539653 C 0.32558641,0.63887709 0.29972733,0.62927879 0.27694338,0.62275956 C 0.2537976,0.61624012 0.22775812,0.60627967 0.20822868,0.59650071 C 0.19846395,0.5932412 0.19123108,0.59034344 0.18472084,0.583824 C 0.17821102,0.58056427 0.17224345,0.58056427 0.16573405,0.583824 C 0.15271462,0.59360317 0.15904342,0.60609879 0.15578851,0.61913767 C 0.1525336,0.62565711 0.14313009,0.63290089 0.1431305,0.64268005 C 0.1431305,0.64593977 0.14258785,0.64883712 0.14584276,0.65535677 C 0.15235257,0.66187621 0.1653722,0.6622388 0.17839183,0.65897866 C 0.19141147,0.65245921 0.20208007,0.65245964 0.21184522,0.65897866 C 0.26392334,0.67201732 0.31636392,0.68795398 0.36554919,0.70425258 C 0.36554919,0.71403174 0.36826185,0.71729146 0.36826163,0.72417307 L 0.36554919,0.73413331 C 0.32612885,0.74753437 0.28652688,0.76003 0.24710676,0.77306888 C 0.24059694,0.77958833 0.23119343,0.78357279 0.21817422,0.78031265 C 0.2084095,0.77705294 0.19882516,0.77976941 0.19195414,0.78302913 C 0.18544432,0.79280829 0.18869922,0.79914664 0.19195414,0.80928797 C 0.19882516,0.81580741 0.20189967,0.82305139 0.20189967,0.83283056 C 0.20515458,0.84586902 0.21473849,0.84858571 0.22450321,0.85184542 C 0.23101261,0.85184542 0.23788449,0.84568837 0.2443943,0.83916893 C 0.25415903,0.83264968 0.27025296,0.81924802 0.27965584,0.81924823 L 0.39086518,0.77669077 C 0.41690404,0.81616938 0.46337767,0.83554682 0.5093076,0.83554682 C 0.5516212,0.83554682 0.59122277,0.81598829 0.62051695,0.78302913 L 0.69827312,0.81290986 C 0.71454745,0.82268903 0.7317267,0.82631112 0.74800104,0.83283056 C 0.76102067,0.83934959 0.77024294,0.84894809 0.78326258,0.85546752 C 0.79953712,0.85546752 0.80984451,0.84912875 0.8130992,0.83283056 C 0.80984451,0.82631112 0.81255676,0.8194293 0.81942821,0.81290986 C 0.82268311,0.80639042 0.82666088,0.80313028 0.82666129,0.79298936 C 0.82340638,0.78321022 0.81653451,0.78302913 0.80677021,0.78302913 C 0.79049567,0.78954856 0.77024294,0.78954856 0.7507135,0.78302913 C 0.72105789,0.77324996 0.69230554,0.76021087 0.66301179,0.75043192 L 0.64944949,0.74409357 C 0.64944949,0.74083384 0.64944991,0.73775562 0.64944949,0.73413331 C 0.65595931,0.71783513 0.65939503,0.70461453 0.66301179,0.69157586 C 0.69230554,0.67853698 0.71834544,0.66567898 0.74800104,0.6526403 C 0.76427557,0.64575869 0.78724075,0.64557781 0.82666129,0.65897866 C 0.83642601,0.66223838 0.84582931,0.66241946 0.85559384,0.6526403 C 0.85559384,0.64938057 0.85559405,0.64593977 0.85559384,0.64268005 C 0.85884875,0.63616062 0.85577466,0.62964097 0.84926483,0.62638145 C 0.84600992,0.61986201 0.83968051,0.61316169 0.84293583,0.60012261 C 0.83968092,0.59034365 0.84239359,0.58400508 0.82937375,0.57748564 C 0.82286393,0.5709662 0.81327961,0.5709662 0.80677021,0.57748564 C 0.79736712,0.58400508 0.78724034,0.5872648 0.77422112,0.59378424 C 0.74492695,0.60356319 0.71490908,0.61605924 0.68561511,0.62909792 C 0.6791053,0.63235763 0.67223426,0.63217656 0.66572402,0.63543627 C 0.66572402,0.62891683 0.66934058,0.62601929 0.66934058,0.62275956 C 0.67259548,0.6129804 0.68254123,0.59034344 0.69556087,0.583824 C 0.71183499,0.5639035 0.72178054,0.54126655 0.70550641,0.50866934 C 0.70550641,0.50540961 0.70514457,0.50196881 0.70188966,0.4987091 C 0.73480017,0.43641286 0.75107513,0.3735715 0.73805549,0.31127505 C 0.72467423,0.22290105 0.6297388,0.14792665 0.50207452,0.14466713 z M 0.50207452,0.15734384 C 0.62322857,0.16060356 0.7118354,0.22652294 0.72810996,0.31489694 C 0.7382363,0.38697254 0.71834523,0.4427508 0.69556087,0.48512696 C 0.68905105,0.46556864 0.68887002,0.44619139 0.68561511,0.42989279 C 0.68561511,0.40345306 0.69863475,0.37411538 0.70188966,0.34477788 C 0.70188966,0.3248574 0.69863475,0.31489736 0.68561511,0.29859834 C 0.68236021,0.2920789 0.67928632,0.29207931 0.67928632,0.29859834 C 0.68905105,0.32141617 0.69574127,0.3409747 0.68923187,0.36379275 C 0.66644772,0.42608919 0.67585039,0.45252996 0.68561511,0.48512696 C 0.69537985,0.5148262 0.7118354,0.54706165 0.67928632,0.56661998 C 0.63986621,0.58980018 0.62648473,0.60628008 0.6232294,0.64539653 C 0.6199745,0.6421368 0.61328386,0.63905795 0.61328386,0.63905816 C 0.60677446,0.63579844 0.60080668,0.63942034 0.59429686,0.64268005 C 0.59104196,0.64593977 0.58724502,0.65227813 0.58435132,0.64901841 C 0.5778415,0.64901841 0.57404414,0.64938057 0.57078924,0.6526403 C 0.56753433,0.65590002 0.56735352,0.65897907 0.5608437,0.65897866 C 0.55758878,0.65571894 0.55107897,0.65245964 0.54456915,0.65897866 C 0.54131425,0.65897866 0.5420373,0.66531681 0.53552769,0.66531702 C 0.52901788,0.66531702 0.52558215,0.66241987 0.52558215,0.66893891 C 0.51907233,0.66893891 0.51527518,0.67219904 0.51202007,0.66893891 C 0.50876516,0.66893891 0.50261677,0.6656796 0.49936206,0.66893891 C 0.49610715,0.66893891 0.48941694,0.66893932 0.48941652,0.66893891 C 0.48579998,0.66241987 0.48272589,0.6620573 0.47947098,0.66531702 C 0.47621607,0.66531702 0.47006767,0.66857652 0.46681298,0.66531702 C 0.46355807,0.6620575 0.46012213,0.66260054 0.45686744,0.66260054 C 0.45361253,0.66260054 0.45017681,0.6622388 0.4469219,0.65897866 C 0.44366698,0.65571894 0.44023126,0.6526403 0.43697636,0.6526403 C 0.43046674,0.6526403 0.43028572,0.65227813 0.42703082,0.64901841 C 0.42015936,0.64539653 0.41441769,0.65037171 0.41075627,0.6526403 C 0.40709485,0.6549089 0.40081073,0.65535677 0.40081073,0.65535677 C 0.39755582,0.61587817 0.38489761,0.59324098 0.35560364,0.58020211 C 0.31618332,0.57042294 0.29629223,0.54452626 0.29954693,0.50866934 C 0.30605674,0.48548934 0.31292778,0.46846577 0.31943802,0.44890786 C 0.32594783,0.42934954 0.32594742,0.40653108 0.31943802,0.38009156 C 0.31618311,0.36053303 0.31238595,0.34133708 0.32215048,0.31489694 C 0.32215048,0.3083775 0.31310902,0.30837792 0.31310902,0.31489694 C 0.3065992,0.33119533 0.30298265,0.35093537 0.30949247,0.3737532 C 0.31274738,0.40309028 0.31238595,0.42934912 0.30587593,0.44890786 C 0.27658196,0.40290982 0.2633815,0.36053261 0.27965584,0.31127505 C 0.30931123,0.19682329 0.4203408,0.16060336 0.50207452,0.15734384 z M 0.6051467,0.41993255 C 0.58971978,0.4205607 0.57273307,0.42588599 0.5608437,0.43260925 C 0.54018605,0.44554202 0.55319891,0.48279025 0.55451469,0.48512696 C 0.56161219,0.49775816 0.56771556,0.50794458 0.58435132,0.51772416 C 0.60062586,0.54054179 0.62630349,0.53112522 0.64583295,0.50504745 C 0.65559768,0.48512716 0.66264993,0.46574929 0.65577849,0.44619139 C 0.65577849,0.42989279 0.64655601,0.41993255 0.62051695,0.41993255 C 0.61563468,0.41993255 0.61028872,0.41972309 0.6051467,0.41993255 z M 0.43516798,0.42536528 C 0.42576509,0.42495805 0.41472117,0.42666243 0.40575767,0.43004635 C 0.37801995,0.43586164 0.36575949,0.45790885 0.36554919,0.46520646 C 0.36511972,0.48003368 0.36862327,0.49816542 0.38815272,0.51772416 C 0.40768197,0.53402235 0.42431836,0.53746315 0.44059289,0.52768441 C 0.46012235,0.5081263 0.47259952,0.48548913 0.47585444,0.47245025 C 0.47910934,0.45615164 0.48236426,0.44564772 0.45957989,0.43260925 C 0.45307009,0.42771958 0.44457108,0.42577272 0.43516798,0.42536528 z M 0.48308752,0.52768441 C 0.47352624,0.54420937 0.4563252,0.57748564 0.45957989,0.59378424 C 0.46283481,0.61008263 0.47929038,0.61913767 0.50207452,0.60283907 C 0.51545559,0.61587796 0.54456915,0.61931854 0.54456915,0.59650071 C 0.54456915,0.57332072 0.53631872,0.54554495 0.52558215,0.52496795 C 0.51234305,0.50723616 0.49321185,0.51083946 0.48308752,0.52768441 z M 0.67295732,0.58654047 C 0.66644751,0.60609859 0.65632094,0.61261823 0.65306603,0.65535677 C 0.65306603,0.68795377 0.64981091,0.71457541 0.63679149,0.7377552 C 0.59122318,0.8391683 0.46030295,0.85836466 0.39809827,0.76673052 C 0.38507863,0.7439129 0.3720588,0.71077202 0.36554919,0.67165537 C 0.35903937,0.63217676 0.35180628,0.6129804 0.34204155,0.59016236 C 0.37169716,0.59668159 0.384717,0.61605924 0.39448172,0.66531702 C 0.39448172,0.6783559 0.39737521,0.70171719 0.40713973,0.71149636 C 0.41039464,0.71149636 0.41708547,0.71783471 0.41708527,0.71783471 C 0.42034017,0.72109443 0.42015936,0.72417307 0.42703082,0.72417307 C 0.43317858,0.72417307 0.43697636,0.72489741 0.43697636,0.72779496 C 0.44023126,0.73141686 0.44366698,0.73413373 0.4469219,0.73413331 C 0.45343172,0.73413331 0.45609942,0.73721195 0.45686744,0.74047168 C 0.46015244,0.74357784 0.46309738,0.74231444 0.46681298,0.74047168 C 0.47083548,0.73797976 0.47778179,0.74114097 0.47947098,0.74409357 C 0.48521299,0.74888891 0.49361985,0.74812109 0.49936206,0.74409357 C 0.50261698,0.74083384 0.50569107,0.74409357 0.5093076,0.74409357 C 0.51256252,0.74735328 0.51907233,0.75061301 0.52558215,0.74409357 C 0.52883706,0.73757412 0.53227278,0.74083384 0.53552769,0.74409357 C 0.5387824,0.74409357 0.54167588,0.74101535 0.54818569,0.7377552 C 0.5514406,0.7377552 0.55487632,0.73721195 0.55813124,0.74047168 C 0.56464106,0.74047168 0.57115087,0.74101535 0.57440577,0.73413331 C 0.57802232,0.73123576 0.58109641,0.72417307 0.58435132,0.72417307 C 0.59086114,0.72417307 0.59411605,0.72707041 0.60062586,0.72055119 C 0.60062586,0.71729146 0.60369995,0.71149636 0.60695486,0.71149636 C 0.61020956,0.71149636 0.61364549,0.71113397 0.61690041,0.70787447 C 0.61690041,0.70135503 0.61997491,0.70117395 0.6232294,0.69791422 C 0.62973922,0.69791422 0.62992004,0.69447342 0.63317494,0.68795398 L 0.63317494,0.66260054 C 0.63642985,0.63616062 0.63353699,0.60935831 0.67295732,0.58654047 z M 0.81942821,0.58744588 C 0.82568367,0.58622336 0.83054927,0.59034365 0.83299029,0.60012261 C 0.82973539,0.61642141 0.83642601,0.62294085 0.84293583,0.63271981 C 0.84619033,0.63923925 0.84582868,0.6421368 0.83931929,0.64539653 C 0.83606438,0.64901841 0.82648047,0.6455776 0.8130992,0.63905816 C 0.78706014,0.63253851 0.77060458,0.62891683 0.75433004,0.63543627 L 0.66301179,0.67889915 C 0.66301179,0.67237971 0.66301179,0.66911978 0.66301179,0.66260054 C 0.66301179,0.65934082 0.66572402,0.65590002 0.66572402,0.6526403 L 0.79320812,0.59650071 C 0.79971793,0.5965005 0.8065896,0.59342208 0.8130992,0.59016236 C 0.81563064,0.58853259 0.81734298,0.58785333 0.81942821,0.58744588 z M 0.17206305,0.59468967 C 0.17450428,0.59387458 0.1767645,0.59487075 0.17839183,0.59650071 C 0.19141147,0.60627967 0.20479295,0.60990176 0.21455767,0.61642121 C 0.26012639,0.62946009 0.30641859,0.6455776 0.3519871,0.65897866 C 0.3519871,0.66875782 0.35506119,0.67817481 0.3583161,0.68795398 L 0.2507233,0.65897866 C 0.23444835,0.65245964 0.21799341,0.64901841 0.20822868,0.64539653 C 0.19846395,0.6421368 0.19141147,0.63887709 0.17839183,0.64539653 C 0.17513693,0.64539653 0.1686269,0.64539653 0.1621173,0.64539653 C 0.15235257,0.64901841 0.15615014,0.6455776 0.15940505,0.63905816 C 0.15940464,0.63253851 0.16247935,0.63235763 0.16573405,0.62909792 C 0.16898853,0.62257869 0.16898896,0.61968092 0.16573405,0.61642121 C 0.16573363,0.61316169 0.16573405,0.60609879 0.16573405,0.60283907 C 0.1673614,0.59794981 0.16962161,0.59550475 0.17206305,0.59468967 z M 0.6002154,0.65040047 C 0.60270178,0.64881588 0.60403301,0.64631628 0.60695486,0.64901841 C 0.60987671,0.65172054 0.6073169,0.65245921 0.61057141,0.65897866 C 0.6073169,0.6654981 0.60749732,0.66893891 0.6042424,0.66893891 C 0.6009875,0.67219904 0.59700932,0.67219862 0.59700932,0.66893891 C 0.59700973,0.66241987 0.59538778,0.66033705 0.59700932,0.65535677 C 0.59863086,0.65037649 0.59772901,0.65198506 0.6002154,0.65040047 z M 0.4207018,0.65535677 C 0.42431836,0.65535677 0.4237759,0.66260054 0.42703082,0.66260054 C 0.42703082,0.66911978 0.42752806,0.67251555 0.42431836,0.67527727 C 0.42110866,0.67803899 0.415616,0.67532256 0.41437281,0.67165537 C 0.41312962,0.66798818 0.4143726,0.6622388 0.41437281,0.65897866 C 0.41437281,0.65571894 0.4174469,0.65535656 0.4207018,0.65535677 z M 0.58163907,0.66078971 C 0.58245837,0.66089172 0.58353785,0.66178587 0.58435132,0.66260054 C 0.5872446,0.66586006 0.58706378,0.66839564 0.59068033,0.67165537 C 0.59068033,0.67491509 0.58964055,0.68270238 0.58435132,0.6852375 C 0.57906209,0.68777262 0.57440577,0.68505917 0.57440577,0.67889915 C 0.57440577,0.67273913 0.57440577,0.66857652 0.57440577,0.66531702 C 0.57711824,0.66287238 0.57918075,0.66048387 0.58163907,0.66078971 z M 0.43697636,0.66531702 C 0.439847,0.66361915 0.44330535,0.66839564 0.44330535,0.67165537 C 0.44656047,0.67491509 0.44330535,0.6852375 0.44330535,0.6852375 C 0.44330556,0.68849765 0.44023126,0.68795398 0.43697636,0.68795398 C 0.43697636,0.68795398 0.43516809,0.68969698 0.43335981,0.6852375 C 0.43155154,0.68077802 0.43410572,0.66701489 0.43697636,0.66531702 z M 0.56446024,0.67165537 C 0.56491231,0.67706559 0.56807678,0.68469425 0.56807678,0.68795398 C 0.56156675,0.6912137 0.55813124,0.69519775 0.55813124,0.69519775 C 0.55162142,0.69519775 0.55180223,0.69483537 0.55180223,0.69157586 C 0.54908615,0.68337621 0.55180223,0.66836437 0.55180223,0.66622243 C 0.55475599,0.66533183 0.56298348,0.66231573 0.56446024,0.67165537 z M 0.61690041,0.66893891 C 0.62015531,0.66893891 0.62322983,0.66893932 0.6232294,0.66893891 C 0.6232294,0.67545835 0.62684595,0.67509596 0.62684595,0.68161561 C 0.62359103,0.68161561 0.61690041,0.68795398 0.61690041,0.68795398 L 0.61690041,0.66893891 z M 0.45957989,0.67165537 C 0.46283502,0.67165537 0.46319644,0.67889915 0.46319644,0.67889915 C 0.46645135,0.68541859 0.46645135,0.69193845 0.46319644,0.69519775 C 0.45994154,0.69519775 0.45650581,0.69519775 0.4532509,0.69519775 C 0.45348138,0.68780159 0.4510781,0.67487641 0.45957989,0.67165537 z M 0.53414563,0.67380525 C 0.53851184,0.67706497 0.53824016,0.67889915 0.53824016,0.67889915 C 0.54149548,0.68867831 0.54149506,0.6946545 0.53824016,0.69791422 C 0.53824057,0.69791422 0.5387824,0.70153611 0.53552769,0.70153611 C 0.53227278,0.70153611 0.52883706,0.70171719 0.52558215,0.69519775 C 0.52558215,0.69193845 0.52433896,0.68510167 0.52558215,0.67889915 C 0.52682534,0.67269663 0.52977941,0.67054553 0.53414563,0.67380525 z M 0.47766281,0.67527727 C 0.47929017,0.67486981 0.48146017,0.67527727 0.48308752,0.67527727 C 0.48634222,0.67853698 0.48941652,0.67871807 0.48941652,0.6852375 C 0.49231001,0.68849765 0.49212898,0.6946545 0.49212898,0.69791422 C 0.49212898,0.70117395 0.48697534,0.70187567 0.48308752,0.70153611 C 0.47736615,0.70040309 0.47247911,0.69554864 0.47314198,0.68976503 C 0.47320121,0.68370308 0.47152591,0.67857663 0.47766281,0.67527727 z M 0.50297861,0.67889915 C 0.50750527,0.67672007 0.51330963,0.67967284 0.51563661,0.6852375 C 0.51563661,0.68849765 0.51563661,0.69827639 0.51563661,0.70153611 C 0.5123817,0.70479583 0.50207452,0.70479583 0.50207452,0.70153611 C 0.497266,0.69400949 0.49845195,0.68107823 0.50297861,0.67889915 z M 0.41421925,0.68496877 C 0.41555441,0.6898448 0.41437281,0.69193845 0.41437281,0.69519775 C 0.4143726,0.69845747 0.41075627,0.69791422 0.41075627,0.69791422 C 0.40676938,0.69472361 0.4062356,0.68750127 0.40713973,0.68433209 C 0.40804387,0.68116291 0.4124944,0.68151396 0.41421925,0.68496877 z M 0.60695486,0.6852375 C 0.60966728,0.68646216 0.61020956,0.69501667 0.60695486,0.70153611 C 0.60695486,0.70479583 0.6042424,0.70153611 0.6042424,0.70153611 C 0.6009875,0.69501667 0.6002868,0.69162117 0.60062586,0.68795398 C 0.60096492,0.68428679 0.60424244,0.68401284 0.60695486,0.6852375 z M 0.42703082,0.69248128 C 0.42834917,0.69324595 0.43064735,0.69566861 0.43064735,0.70153611 C 0.43064735,0.71131527 0.43064735,0.7109531 0.43064735,0.71421282 C 0.42380992,0.71516629 0.42215239,0.71035403 0.4207018,0.70425258 C 0.4207018,0.70099285 0.41964696,0.69728035 0.4207018,0.69519775 C 0.42175664,0.69311515 0.42571247,0.69171661 0.42703082,0.69248128 z M 0.59429686,0.69519775 C 0.59508799,0.70015524 0.59393523,0.70497692 0.59068033,0.71149636 C 0.59068033,0.71475608 0.59068033,0.71783471 0.58706378,0.71783471 C 0.58417051,0.71783471 0.58435132,0.71747254 0.58435132,0.71421282 C 0.58109641,0.70443367 0.58310813,0.70192097 0.58435132,0.69791422 C 0.58559451,0.69390747 0.59350573,0.69024026 0.59429686,0.69519775 z M 0.4469219,0.70153611 C 0.45096794,0.70368661 0.4532509,0.71131527 0.4532509,0.71783471 C 0.4532509,0.71783471 0.45053844,0.72055119 0.45053844,0.72417307 C 0.44728354,0.72417307 0.44656026,0.72417307 0.44330535,0.72055119 C 0.44005065,0.71729146 0.44093195,0.71437125 0.44059289,0.71149636 C 0.44158216,0.70299732 0.44539198,0.700461 0.4469219,0.70153611 z M 0.57078924,0.70425258 C 0.57078965,0.71403174 0.57078924,0.72127594 0.57078924,0.72779496 C 0.56753474,0.73141686 0.5608437,0.72707041 0.5608437,0.72417307 C 0.55758878,0.72055119 0.55697453,0.71552389 0.55884739,0.71149636 C 0.56205682,0.70503888 0.565741,0.70425258 0.57078924,0.70425258 z M 0.46319644,0.70606363 C 0.4673991,0.70716695 0.47202284,0.70913638 0.47585444,0.71149636 C 0.47585444,0.7180158 0.47314198,0.72489782 0.47314198,0.72779496 C 0.47314198,0.72779496 0.46952543,0.73141686 0.46952543,0.73141686 C 0.46627074,0.73141686 0.46319644,0.72707041 0.46319644,0.72417307 C 0.46319615,0.71813659 0.46319644,0.71210011 0.46319644,0.70606363 z M 0.54818569,0.71421282 C 0.54818569,0.71747254 0.54456915,0.72489782 0.54456915,0.73141686 C 0.54456915,0.7343144 0.54185669,0.73413331 0.54185669,0.73413331 C 0.53860179,0.73413373 0.53620578,0.73603481 0.53552769,0.73141686 C 0.5348496,0.72679891 0.53311313,0.71220932 0.53643198,0.70877988 C 0.53975084,0.70535044 0.54555454,0.70979136 0.54818569,0.71421282 z M 0.51473253,0.71149636 C 0.51595324,0.71108912 0.51762581,0.71149636 0.51925314,0.71149636 C 0.52250805,0.71149636 0.52558215,0.714575 0.52558215,0.71783471 C 0.52558215,0.72471633 0.52250805,0.73123576 0.51925314,0.73413331 C 0.51925314,0.73413373 0.51527498,0.73413331 0.51202007,0.73413331 C 0.50952821,0.72662869 0.51059436,0.72451489 0.51202007,0.71421282 C 0.51202007,0.71258307 0.5135118,0.71190379 0.51473253,0.71149636 z M 0.49303306,0.71240198 C 0.49823264,0.71559566 0.49840933,0.72511484 0.49574552,0.73141686 C 0.49249061,0.7343144 0.48941652,0.7377552 0.48579998,0.73413331 C 0.48549631,0.72862791 0.48262114,0.70843099 0.49303306,0.71240198 z M 0.37459065,0.74047168 C 0.37459085,0.7437314 0.37856881,0.7471722 0.38182373,0.75043192 C 0.38182373,0.75695115 0.38453619,0.7634708 0.38453619,0.76673052 L 0.27965584,0.80657151 C 0.26663643,0.81309137 0.25415903,0.81906714 0.2443943,0.82558657 C 0.23788449,0.8288463 0.23101261,0.83264968 0.22450321,0.83916893 C 0.22450321,0.83916893 0.22106749,0.83880654 0.21455767,0.83554682 C 0.21455789,0.82250835 0.21112195,0.80946906 0.20461213,0.80294962 C 0.20135722,0.79280829 0.20533541,0.78936748 0.21184522,0.78936748 C 0.22811934,0.79588692 0.23788449,0.78991073 0.2443943,0.78665102 L 0.37459065,0.74047168 z M 0.64312049,0.75043192 L 0.74800104,0.79298936 C 0.76753049,0.7995086 0.78073094,0.80349308 0.80677021,0.79661126 C 0.81327961,0.79661126 0.81599206,0.79969031 0.80948267,0.80657151 C 0.80297285,0.81309116 0.79989897,0.8194293 0.80315366,0.82920847 C 0.79700548,0.83898742 0.78977198,0.84188518 0.78326258,0.84188518 C 0.77675276,0.83862546 0.7707854,0.83246819 0.76427557,0.82920847 C 0.74800104,0.8194293 0.73172649,0.8125477 0.7118354,0.80928797 C 0.68905126,0.79914664 0.66934058,0.79280829 0.64944949,0.78302913 L 0.62955841,0.77306888 C 0.63281331,0.76328972 0.63950436,0.75695115 0.64312049,0.75043192 z "
     style="font-style: normal; font-variant: normal; font-weight: normal; font-stretch: normal; letter-spacing: normal; word-spacing: normal; text-anchor: start; fill: rgb(0, 0, 0); fill-opacity: 1; fill-rule: evenodd; stroke: none; stroke-width: 0pt; stroke-linecap: butt; stroke-linejoin: miter; stroke-miterlimit: 10.433; stroke-dasharray: none; stroke-dashoffset: 0pt; stroke-opacity: 1;"
     id="path17569"
     inkscape:export-xdpi="8.0699997"
     inkscape:export-ydpi="8.0699997"
     inkscape:export-filename="C:\Users\recovr\Desktop\path4700.png" />
  <path
     style="opacity:1;fill:#ffffff;fill-opacity:1;stroke:#ffffff;stroke-width:0.76526707000000005;stroke-linejoin:miter;stroke-opacity:1"
     d="M 255.91761,334.14688 C 255.64494,333.87418 253.10533,333.69055 250.27399,333.7388 C 246.53038,333.8026 244.75657,333.49199 243.77098,332.60007 C 242.60487,331.54476 241.94704,331.50486 239.05602,332.31428 C 236.20402,333.11279 235.33996,333.07068 233.3384,332.03563 C 232.0415,331.36501 229.80539,330.8163 228.36929,330.8163 C 226.61997,330.8163 224.80437,330.05841 222.86916,328.5205 C 221.28024,327.25781 219.425,326.22258 218.74629,326.21999 C 218.06757,326.21739 216.52594,325.70084 215.32034,325.07209 C 212.3283,323.51165 209.24971,323.63758 205.85054,325.45943 C 201.59382,327.74089 200.29379,327.50098 200.29379,324.43395 C 200.29379,320.74609 197.52069,310.40516 195.3357,305.94512 C 191.51388,298.14391 184.1654,291.86361 175.56563,289.04888 C 159.58081,283.817 151.54864,274.68696 150.11094,260.11492 C 149.67879,255.73496 150.02293,254.31822 155.52183,237.83635 C 163.2407,214.70065 163.7317,209.701 160.19563,190.24241 C 158.1594,179.03699 157.92317,171.87007 159.38069,165.51861 C 160.1051,162.36189 160.73935,158.746 160.79016,157.48331 C 160.86914,155.52 160.60543,155.18751 158.96936,155.18751 C 157.28731,155.18751 156.83243,155.83458 155.20364,160.54438 C 152.97977,166.97489 152.61941,177.98565 154.27828,188.81829 C 155.48028,196.66716 155.08502,215.33239 153.61425,220.17502 L 152.7029,223.17591 L 150.34894,219.40976 C 146.52015,213.28438 141.61211,202.36071 139.37309,194.9814 C 137.51816,188.8681 137.28032,186.84682 137.25682,176.99762 C 137.23195,166.60082 137.39006,165.37054 139.7646,157.48331 C 141.15846,152.85344 142.61239,147.98182 142.99556,146.65748 C 144.25703,142.29743 151.76346,128.32007 155.51732,123.34133 C 171.03487,102.76032 194.89368,88.621671 224.44845,82.492953 C 239.18887,79.436262 249.26912,78.673903 260.91534,79.734999 C 293.47699,82.701741 320.46268,94.260824 339.59864,113.43836 C 350.34613,124.20914 357.02722,135.03376 361.35205,148.68274 C 367.04931,166.66305 365.60448,195.96799 357.91447,218.40617 C 355.1957,226.33934 348.84001,240.51479 348.00196,240.51479 C 346.44954,240.51479 343.0979,217.26822 343.64369,210.28674 C 343.87396,207.34046 345.54094,198.90339 347.34804,191.5377 C 350.15994,180.07699 350.63372,176.98664 350.63364,170.11022 C 350.63364,163.53262 350.33741,161.42704 349.00056,158.50363 C 346.85093,153.80267 341.21917,146.22476 340.29817,146.79397 C 339.11086,147.52777 339.42921,149.18081 342.40748,157.74696 C 346.10219,168.37371 346.32021,175.73717 343.21522,185.03293 C 338.66241,198.66289 337.76721,203.53195 337.72718,214.87834 C 337.68517,226.80466 338.23593,229.52203 344.70818,249.31536 C 349.87304,265.11041 349.97712,272.32902 345.12311,278.09772 C 344.03933,279.38572 339.33378,282.95336 334.66642,286.02588 C 320.49949,295.35185 315.04512,302.44985 312.47482,314.90475 C 311.80529,318.14897 311.25751,320.99068 311.25751,321.21969 C 311.25751,321.4487 309.97125,320.94666 308.39909,320.10405 C 306.827,319.26143 304.747,318.57203 303.77703,318.57203 C 301.55806,318.57203 296.77942,320.97857 294.92365,323.03059 C 294.14759,323.88878 293.06443,324.41899 292.51681,324.20883 C 290.91074,323.59255 285.38062,325.38403 284.30986,326.86744 C 282.67701,329.12968 281.56875,329.40609 279.14882,328.15468 C 277.14497,327.11846 276.51125,327.10041 274.3434,328.01778 C 272.96998,328.599 271.19027,329.8108 270.38842,330.71068 C 269.39296,331.82793 268.02719,332.34684 266.08188,332.34684 C 264.48324,332.34684 262.81503,332.85057 262.28042,333.49474 C 261.33325,334.636 256.8647,335.09397 255.91761,334.14686 L 255.91761,334.14688 z M 266.00023,306.61693 C 267.30952,306.35504 269.24664,305.27497 270.30486,304.21675 C 272.03222,302.48941 272.22889,301.68059 272.22889,296.30456 C 272.22889,287.91763 269.2471,275.82391 264.69943,265.76622 C 261.10015,257.80617 254.05296,254.60748 247.23886,257.84099 C 243.73976,259.5014 241.79208,262.18872 236.77881,272.27337 C 229.72098,286.47107 227.93194,294.6946 230.71438,300.15123 C 233.77009,306.14397 240.10497,307.51846 247.46929,303.78667 C 250.97061,302.01245 251.4437,301.94114 252.52709,303.02451 C 253.65525,304.15266 260.89536,307.01397 262.75871,307.06804 C 263.23226,307.08178 264.69093,306.87877 266.00023,306.61691 L 266.00023,306.61693 z M 218.05188,265.17456 C 221.49283,263.57368 227.20654,257.13744 231.90666,249.56781 C 237.19175,241.05603 238.77402,236.52605 238.86325,229.6508 C 238.93924,223.80088 238.91965,223.74039 235.96327,220.70863 C 234.32621,219.02979 230.88251,216.52452 228.3106,215.14134 C 223.93204,212.78652 223.17175,212.6297 216.36439,212.6771 C 202.11719,212.77634 190.36636,218.00053 184.8598,226.68344 C 177.75942,237.87959 188.52574,259.71402 203.93845,265.37545 C 207.9564,266.8513 214.65272,266.75602 218.05188,265.17459 L 218.05188,265.17456 z M 311.73542,263.05748 C 319.31157,259.38867 324.79386,251.67001 328.14397,239.9554 C 329.93072,233.7076 329.98888,230.44266 328.44801,222.91365 C 327.13359,216.4911 325.69619,214.05844 321.89128,211.81727 C 319.58492,210.45878 317.91648,210.28674 307.04854,210.28674 C 294.01321,210.28674 291.26223,210.81168 282.40832,214.98851 C 276.91929,217.57797 275.12275,220.66403 274.6831,228.25873 C 274.10265,238.28651 277.87235,247.22292 285.55188,254.0239 C 292.75557,260.40337 298.2306,264.64319 299.92016,265.15041 C 302.68208,265.97957 307.4425,265.13632 311.73542,263.05745 L 311.73542,263.05748 z"
     id="path4650"
     transform="scale(2e-3,2e-3)"
     inkscape:export-filename="C:\Users\recovr\Desktop\path4700.png"
     inkscape:export-xdpi="8"
     inkscape:export-ydpi="8" />
  <path
     style="opacity:1;fill:#ffffff;fill-opacity:1;stroke:#ffffff;stroke-width:0.76526707000000005;stroke-linejoin:miter;stroke-opacity:1"
     d="M 298.71119,332.29565 C 298.10295,328.49189 299.50209,325.173 301.85567,324.83678 C 303.19274,324.64577 303.67586,325.11441 304.22188,327.13258 C 305.0101,330.04596 303.74833,333.33716 301.35144,334.61996 C 299.26325,335.73752 299.26126,335.73576 298.71119,332.29566 L 298.71119,332.29565 z"
     id="path4652"
     transform="scale(2e-3,2e-3)"
     inkscape:export-filename="C:\Users\recovr\Desktop\path4700.png"
     inkscape:export-xdpi="8"
     inkscape:export-ydpi="8" />
  <path
     style="opacity:1;fill:#ffffff;fill-opacity:1;stroke:#ffffff;stroke-width:0.76526707000000005;stroke-linejoin:miter;stroke-opacity:1"
     d="M 308.96171,338.9702 C 308.96171,333.87694 310.3959,333.1102 311.93929,337.37837 C 312.48339,338.883 312.81085,340.17808 312.66698,340.25627 C 312.52311,340.33448 311.63058,341.0508 310.68356,341.84812 L 308.96171,343.29781 L 308.96171,338.9702 z"
     id="path4654"
     transform="scale(2e-3,2e-3)"
     inkscape:export-filename="C:\Users\recovr\Desktop\path4700.png"
     inkscape:export-xdpi="8"
     inkscape:export-ydpi="8" />
  <path
     style="opacity:1;fill:#ffffff;fill-opacity:1;stroke:#ffffff;stroke-width:0.76526707000000005;stroke-linejoin:miter;stroke-opacity:1"
     d="M 301.46278,348.17181 C 300.12387,344.4692 300.29904,343.06058 302.09834,343.06058 C 304.06301,343.06058 304.67583,344.6348 304.03691,348.04058 C 303.40847,351.39044 302.64076,351.42956 301.46278,348.1718 L 301.46278,348.17181 z"
     id="path4656"
     transform="scale(2e-3,2e-3)"
     inkscape:export-filename="C:\Users\recovr\Desktop\path4700.png"
     inkscape:export-xdpi="8"
     inkscape:export-ydpi="8" />
  <path
     style="opacity:1;fill:#ffffff;fill-opacity:1;stroke:#ffffff;stroke-width:0.76526707000000005;stroke-linejoin:miter;stroke-opacity:1"
     d="M 287.99883,341.08482 C 287.74323,340.41905 287.53423,338.19276 287.53423,336.13751 C 287.53423,333.22621 287.86123,332.22567 289.01449,331.60849 C 291.02798,330.53091 290.92812,330.48754 293.15474,333.40673 C 294.85325,335.63359 295.02903,336.35103 294.4074,338.51848 C 294.00969,339.9052 293.24756,341.31702 292.71379,341.65584 C 291.09364,342.68419 288.49158,342.36906 287.99875,341.08482 L 287.99883,341.08482 z"
     id="path4658"
     transform="scale(2e-3,2e-3)"
     inkscape:export-filename="C:\Users\recovr\Desktop\path4700.png"
     inkscape:export-xdpi="8"
     inkscape:export-ydpi="8" />
  <path
     style="opacity:1;fill:#ffffff;fill-opacity:1;stroke:#ffffff;stroke-width:0.76526707000000005;stroke-linejoin:miter;stroke-opacity:1"
     d="M 292.16127,355.43629 C 291.29682,352.22619 291.63714,350.40524 293.50867,348.22613 C 295.56173,345.83561 296.92628,346.53775 296.48304,349.75666 C 295.32963,358.13382 293.52589,360.50423 292.16127,355.4363 L 292.16127,355.43629 z"
     id="path4660"
     transform="scale(2e-3,2e-3)"
     inkscape:export-filename="C:\Users\recovr\Desktop\path4700.png"
     inkscape:export-xdpi="8"
     inkscape:export-ydpi="8" />
  <path
     style="opacity:1;fill:#ffffff;fill-opacity:1;stroke:#ffffff;stroke-width:0.76526707000000005;stroke-linejoin:miter;stroke-opacity:1"
     d="M 276.05523,339.99951 L 276.05523,333.11211 L 278.30588,333.11211 C 280.99487,333.11211 281.27733,333.50492 282.61601,339.10481 C 283.65088,343.43404 283.64867,343.44684 281.57602,345.16126 C 280.43363,346.10616 278.7241,346.88102 277.77708,346.88311 C 276.11874,346.88675 276.05523,346.63295 276.05523,339.99951 z"
     id="path4662"
     transform="scale(2e-3,2e-3)"
     inkscape:export-filename="C:\Users\recovr\Desktop\path4700.png"
     inkscape:export-xdpi="8"
     inkscape:export-ydpi="8" />
  <path
     style="opacity:1;fill:#ffffff;fill-opacity:1;stroke:#ffffff;stroke-width:0.76526707000000005;stroke-linejoin:miter;stroke-opacity:1"
     d="M 280.28509,360.98027 C 279.22603,358.74848 279.14813,357.84069 279.86694,356.10532 C 280.58951,354.36082 283.3444,352.24378 284.89184,352.24378 C 285.08247,352.24378 285.23843,354.82656 285.23843,357.98329 C 285.23843,363.52216 285.17461,363.72279 283.41243,363.72279 C 282.06977,363.72279 281.24205,362.99691 280.28509,360.98029 L 280.28509,360.98027 z"
     id="path4664"
     transform="scale(2e-3,2e-3)"
     inkscape:export-filename="C:\Users\recovr\Desktop\path4700.png"
     inkscape:export-xdpi="8"
     inkscape:export-ydpi="8" />
  <path
     style="opacity:1;fill:#ffffff;fill-opacity:1;stroke:#ffffff;stroke-width:0.76526707000000005;stroke-linejoin:miter;stroke-opacity:1"
     d="M 268.13012,365.10217 C 267.52081,362.82721 267.50406,357.3077 268.10181,355.75008 C 268.71777,354.14469 270.9362,354.21099 272.40934,355.8788 C 274.18461,357.88867 272.4313,366.29785 270.16718,366.63269 C 269.074,366.79436 268.4598,366.33289 268.13012,365.10216 L 268.13012,365.10217 z"
     id="path4666"
     transform="scale(2e-3,2e-3)"
     inkscape:export-filename="C:\Users\recovr\Desktop\path4700.png"
     inkscape:export-xdpi="8"
     inkscape:export-ydpi="8" />
  <path
     style="opacity:1;fill:#ffffff;fill-opacity:1;stroke:#ffffff;stroke-width:0.76526707000000005;stroke-linejoin:miter;stroke-opacity:1"
     d="M 264.57622,349.18271 C 263.42235,348.02882 263.04569,346.63183 263.04569,343.5058 C 263.04569,338.45243 263.56645,336.93844 265.30475,336.93844 C 268.84718,336.93844 271.29618,345.07523 268.86883,348.77988 C 267.33968,351.11369 266.57862,351.18509 264.57622,349.18271 z"
     id="path4668"
     transform="scale(2e-3,2e-3)"
     inkscape:export-filename="C:\Users\recovr\Desktop\path4700.png"
     inkscape:export-xdpi="8"
     inkscape:export-ydpi="8" />
  <path
     style="opacity:1;fill:#ffffff;fill-opacity:1;stroke:#ffffff;stroke-width:0.76526707000000005;stroke-linejoin:miter;stroke-opacity:1"
     d="M 250.92424,349.52933 C 249.65213,346.7373 249.82095,341.85454 251.23869,340.43681 C 252.79761,338.8779 253.2531,338.91728 255.67241,340.82032 C 257.39939,342.17872 257.68882,342.99087 257.68882,346.47795 C 257.68882,350.77038 257.10132,351.47852 253.54007,351.47852 C 252.43128,351.47852 251.49421,350.78025 250.92424,349.52934 L 250.92424,349.52933 z"
     id="path4670"
     transform="scale(2e-3,2e-3)"
     inkscape:export-filename="C:\Users\recovr\Desktop\path4700.png"
     inkscape:export-xdpi="8"
     inkscape:export-ydpi="8" />
  <path
     style="opacity:1;fill:#ffffff;fill-opacity:1;stroke:#ffffff;stroke-width:0.76526707000000005;stroke-linejoin:miter;stroke-opacity:1"
     d="M 255.8723,364.67937 C 255.64815,363.52191 255.71152,361.19741 256.01311,359.51382 C 256.44411,357.10819 256.93702,356.39921 258.31519,356.20269 C 262.12446,355.65953 263.36656,359.28944 261.04535,364.18108 C 259.43929,367.5655 256.48635,367.84995 255.8723,364.67937 z"
     id="path4672"
     transform="scale(2e-3,2e-3)"
     inkscape:export-filename="C:\Users\recovr\Desktop\path4700.png"
     inkscape:export-xdpi="8"
     inkscape:export-ydpi="8" />
  <path
     style="opacity:1;fill:#ffffff;fill-opacity:1;stroke:#ffffff;stroke-width:0.76526707000000005;stroke-linejoin:miter;stroke-opacity:1"
     d="M 243.65895,367.03893 C 242.69547,366.07549 243.11186,357.81867 244.16808,356.94206 C 245.70986,355.66251 247.6945,357.49048 248.20961,360.66447 C 248.78715,364.22363 245.47844,368.85844 243.65895,367.03894 L 243.65895,367.03893 z"
     id="path4674"
     transform="scale(2e-3,2e-3)"
     inkscape:export-filename="C:\Users\recovr\Desktop\path4700.png"
     inkscape:export-xdpi="8"
     inkscape:export-ydpi="8" />
  <path
     style="opacity:1;fill:#ffffff;fill-opacity:1;stroke:#ffffff;stroke-width:0.76526707000000005;stroke-linejoin:miter;stroke-opacity:1"
     d="M 240.2594,349.86176 C 237.93865,349.00324 236.91227,346.56491 237.17706,342.53896 C 237.57515,336.48493 241.26412,335.98212 244.06859,341.5996 C 244.78496,343.03449 245.38761,345.45972 245.40781,346.98901 C 245.4385,349.3108 245.149,349.82606 243.65313,350.11201 C 242.66785,350.30034 241.14068,350.18775 240.2594,349.86176 z"
     id="path4676"
     transform="scale(2e-3,2e-3)"
     inkscape:export-filename="C:\Users\recovr\Desktop\path4700.png"
     inkscape:export-xdpi="8"
     inkscape:export-ydpi="8" />
  <path
     style="opacity:1;fill:#ffffff;fill-opacity:1;stroke:#ffffff;stroke-width:0.76526707000000005;stroke-linejoin:miter;stroke-opacity:1"
     d="M 227.07813,343.19383 C 227.07813,340.58816 227.53867,338.83924 228.55181,337.59717 C 229.98202,335.84385 230.04056,335.83571 230.53668,337.32107 C 230.81792,338.16287 231.38827,339.76593 231.80419,340.88344 C 233.13912,344.4697 232.37363,346.4733 229.56525,346.74408 L 227.07813,346.98388 L 227.07813,343.19383 z"
     id="path4678"
     transform="scale(2e-3,2e-3)"
     inkscape:export-filename="C:\Users\recovr\Desktop\path4700.png"
     inkscape:export-xdpi="8"
     inkscape:export-ydpi="8" />
  <path
     style="opacity:1;fill:#ffffff;fill-opacity:1;stroke:#ffffff;stroke-width:0.76526707000000005;stroke-linejoin:miter;stroke-opacity:1"
     d="M 232.91069,363.62344 C 231.50979,361.62333 231.16099,353.77432 232.47304,353.77432 C 232.91483,353.77432 234.25022,354.27797 235.44067,354.89355 C 237.52908,355.97354 237.58112,356.14062 236.92391,359.65839 C 236.54931,361.66348 235.77233,363.77451 235.19723,364.34957 C 234.31335,365.23352 233.9598,365.12125 232.91069,363.62343 L 232.91069,363.62344 z"
     id="path4680"
     transform="scale(2e-3,2e-3)"
     inkscape:export-filename="C:\Users\recovr\Desktop\path4700.png"
     inkscape:export-xdpi="8"
     inkscape:export-ydpi="8" />
  <path
     style="opacity:1;fill:#ffffff;fill-opacity:1;stroke:#ffffff;stroke-width:0.76526707000000005;stroke-linejoin:miter;stroke-opacity:1"
     d="M 222.22251,360.02751 C 220.86807,358.53088 220.54092,354.0842 221.65576,352.32358 C 223.59288,349.26426 227.39595,356.44274 225.60798,359.7836 C 224.53316,361.79189 223.86294,361.84019 222.22251,360.02751 z"
     id="path4682"
     transform="scale(2e-3,2e-3)"
     inkscape:export-filename="C:\Users\recovr\Desktop\path4700.png"
     inkscape:export-xdpi="8"
     inkscape:export-ydpi="8" />
  <path
     style="opacity:1;fill:#ffffff;fill-opacity:1;stroke:#ffffff;stroke-width:0.76526707000000005;stroke-linejoin:miter;stroke-opacity:1"
     d="M 217.63986,343.31565 C 216.69246,342.36826 217.12117,335.71192 218.22606,334.21495 C 219.63935,332.30013 220.85077,333.40125 221.45977,337.15426 C 222.07596,340.95126 221.2481,343.82584 219.53842,343.82584 C 218.77483,343.82584 217.92041,343.59626 217.63986,343.31566 L 217.63986,343.31565 z"
     id="path4684"
     transform="scale(2e-3,2e-3)"
     inkscape:export-filename="C:\Users\recovr\Desktop\path4700.png"
     inkscape:export-xdpi="8"
     inkscape:export-ydpi="8" />
  <path
     style="opacity:1;fill:#ffffff;fill-opacity:1;stroke:#ffffff;stroke-width:0.76526707000000005;stroke-linejoin:miter;stroke-opacity:1"
     d="M 207.97339,336.22347 C 206.61941,333.69354 207.00028,329.43644 208.66014,328.54813 C 209.88526,327.89246 210.41046,328.13788 211.72121,329.97855 C 212.59132,331.20061 213.30333,332.7726 213.30333,333.47187 C 213.30333,335.61955 211.79575,337.70371 210.24226,337.70371 C 209.43008,337.70371 208.40906,337.0376 207.97339,336.22348 L 207.97339,336.22347 z"
     id="path4686"
     transform="scale(2e-3,2e-3)"
     inkscape:export-filename="C:\Users\recovr\Desktop\path4700.png"
     inkscape:export-xdpi="8"
     inkscape:export-ydpi="8" />
  <path
     style="opacity:1;fill:#ffffff;fill-opacity:1;stroke:#ffffff;stroke-width:0.76526707000000005;stroke-linejoin:miter;stroke-opacity:1"
     d="M 212.67305,356.16975 C 211.14696,355.20214 209.99347,349.25672 211.07824,347.94962 C 213.35054,345.21162 214.83386,347.23457 214.83386,353.07164 C 214.83386,356.87414 214.51199,357.33566 212.67305,356.16974 L 212.67305,356.16975 z"
     id="path4688"
     transform="scale(2e-3,2e-3)"
     inkscape:export-filename="C:\Users\recovr\Desktop\path4700.png"
     inkscape:export-xdpi="8"
     inkscape:export-ydpi="8" />
  <path
     style="opacity:1;fill:#ffffff;fill-opacity:1;stroke:#ffffff;stroke-width:0.76526707000000005;stroke-linejoin:miter;stroke-opacity:1"
     d="M 204.59704,347.23933 C 203.68522,344.86316 204.06847,341.53004 205.2534,341.53004 C 206.4662,341.53004 207.48385,344.37349 207.05767,346.57165 C 206.70917,348.36899 205.18882,348.78149 204.59704,347.2393 L 204.59704,347.23933 z"
     id="path4690"
     transform="scale(2e-3,2e-3)"
     inkscape:export-filename="C:\Users\recovr\Desktop\path4700.png"
     inkscape:export-xdpi="8"
     inkscape:export-ydpi="8" />
  <path
     style="opacity:1;fill:#ffffff;fill-opacity:1;stroke:#ffffff;stroke-width:0.76526707000000005;stroke-linejoin:miter;stroke-opacity:1"
     d="M 247.74034,412.2201 C 230.83269,410.41023 217.66244,403.68792 205.71693,390.77067 C 195.65726,379.89257 188.54938,362.29299 182.73994,333.87737 C 179.23318,316.72514 177.51431,310.27397 174.28412,302.1424 C 173.01622,298.9508 171.9789,296.17763 171.9789,295.97985 C 171.9789,295.08934 179.88733,298.74904 182.59193,300.89115 C 189.73647,306.54966 195.53689,320.93567 197.28047,337.32107 C 197.68354,341.10915 198.73578,346.38805 199.61874,349.05198 C 200.97242,353.13601 201.78116,354.29817 204.77664,356.46363 C 206.73045,357.87612 208.88414,359.69127 209.56262,360.49731 C 210.24103,361.30335 212.20501,362.18813 213.92702,362.46349 C 215.6491,362.73885 217.98569,363.82396 219.11958,364.87484 C 220.25356,365.92571 222.50222,367.14122 224.1167,367.57595 C 225.73119,368.01071 227.43567,369.08307 227.90447,369.95903 C 228.62443,371.30428 229.19111,371.46822 231.5525,371.01441 C 235.73254,370.21109 236.82802,370.36457 239.25636,372.0937 C 241.81358,373.91459 246.4162,374.13843 249.23231,372.57888 C 251.19055,371.49443 251.83881,371.57625 256.03102,373.43687 C 258.11086,374.35992 258.99788,374.39696 260.83207,373.63721 C 262.06951,373.12465 263.38753,372.15929 263.76098,371.49196 C 264.35873,370.42379 264.68206,370.4082 266.46383,371.36178 C 268.30032,372.34463 268.79766,372.27555 271.83639,370.61557 C 274.7069,369.04752 275.47102,368.91649 277.18675,369.69822 C 281.32172,371.58225 284.82672,370.59586 288.18693,366.60247 C 291.48148,362.6871 292.24522,362.127 293.6719,362.57982 C 296.2856,363.40936 299.08066,362.05506 300.98686,359.03547 C 302.1692,357.16248 303.43763,356.07012 304.43003,356.07012 C 306.80228,356.07012 308.96171,354.65512 308.96171,353.10073 C 308.96171,351.42485 311.28414,349.18271 313.02,349.18271 C 315.1665,349.18271 316.61385,345.12213 316.62066,339.08093 C 316.628,332.51416 317.78478,321.30997 319.01449,315.8936 C 320.11533,311.04485 322.20581,306.8272 325.55561,302.69621 C 328.21935,299.41128 334.98079,294.20962 334.98079,295.44528 C 334.98079,295.81385 333.62106,299.25031 331.95921,303.08192 C 328.16188,311.83712 326.71476,319.42767 325.79629,335.40791 C 324.90697,350.88213 323.3397,357.47254 317.87983,368.69702 C 312.55801,379.63776 308.03558,385.99855 300.6167,392.97776 C 291.28381,401.75743 281.35455,407.20602 268.97054,410.34321 C 263.29715,411.78041 252.52747,412.73254 247.74034,412.22011 L 247.74034,412.2201 z"
     id="path4692"
     transform="scale(2e-3,2e-3)"
     inkscape:export-filename="C:\Users\recovr\Desktop\path4700.png"
     inkscape:export-xdpi="8"
     inkscape:export-ydpi="8" />
  <path
     style="opacity:1;fill:#ffffff;fill-opacity:1;stroke:#ffffff;stroke-width:0.76526707000000005;stroke-linejoin:miter;stroke-opacity:1"
     d="M 332.10124,333.05732 C 332.31422,330.0809 332.79764,327.33647 333.17553,326.95861 C 334.37126,325.76283 394.91307,299.29863 398.11533,298.57191 C 399.79891,298.18985 403.18231,296.99278 405.63392,295.91177 C 408.45393,294.6683 410.7681,294.11612 411.93345,294.40861 C 414.53765,295.0622 416.0991,298.60041 416.0991,303.84766 C 416.0991,307.59884 416.52888,309.04463 418.7307,312.70119 C 422.41784,318.82431 422.59377,319.69528 420.53191,321.62033 C 418.46125,323.55357 416.38493,323.34017 409.31493,320.46735 C 406.75113,319.42558 400.83049,317.81895 396.15808,316.89706 C 383.65063,314.42928 382.69695,314.68102 355.37516,327.6622 C 342.86526,333.60593 332.42388,338.46897 332.17195,338.46897 C 331.92011,338.46897 331.88835,336.03373 332.10124,333.05731 L 332.10124,333.05732 z"
     id="path4694"
     transform="scale(2e-3,2e-3)"
     inkscape:export-filename="C:\Users\recovr\Desktop\path4700.png"
     inkscape:export-xdpi="8"
     inkscape:export-ydpi="8" />
  <path
     style="opacity:1;fill:#ffffff;fill-opacity:1;stroke:#ffffff;stroke-width:0.76526707000000005;stroke-linejoin:miter;stroke-opacity:1"
     d="M 386.94862,417.30367 C 380.2468,412.65025 371.07676,408.33967 363.22481,406.15182 C 354.82593,403.81153 336.89059,396.72795 324.08737,390.69442 L 315.10719,386.46244 L 317.03803,382.93662 C 318.09999,380.99739 319.6039,378.57747 320.38003,377.55901 L 321.79111,375.70727 L 346.94368,385.91899 C 383.26501,400.6652 386.41485,401.5105 398.20677,399.67611 C 406.56234,398.37632 407.21718,398.94196 403.54206,404.28465 C 401.34161,407.48354 400.79376,408.9991 400.79376,411.88709 C 400.79376,415.62935 399.53015,417.50796 395.67849,419.49166 C 393.03081,420.85529 391.51735,420.47598 386.94862,417.30365 L 386.94862,417.30367 z"
     id="path4696"
     transform="scale(2e-3,2e-3)"
     inkscape:export-filename="C:\Users\recovr\Desktop\path4700.png"
     inkscape:export-xdpi="8"
     inkscape:export-ydpi="8" />
  <path
     style="opacity:1;fill:#ffffff;fill-opacity:1;stroke:#ffffff;stroke-width:0.76526707000000005;stroke-linejoin:miter;stroke-opacity:1"
     d="M 109.13023,418.31271 C 108.23865,418.07506 107.73967,416.69123 107.37118,413.43422 C 107.06342,410.71397 105.94946,407.16265 104.59819,404.59384 C 100.65592,397.09946 101.8833,394.28586 108.41171,395.85201 C 112.43851,396.81803 115.54987,396.49722 119.94074,394.66329 C 121.41388,394.04801 137.05594,388.42837 154.70078,382.17523 L 186.78254,370.80586 L 188.56966,372.92986 C 190.00454,374.63508 192.4651,382.7534 191.6882,383.21908 C 191.58099,383.28337 179.30955,387.94482 164.41845,393.57786 C 137.69723,403.68603 125.71868,409.28341 115.92132,416.2398 C 112.35858,418.76945 111.65242,418.985 109.13024,418.31271 L 109.13023,418.31271 z"
     id="path4698"
     transform="scale(2e-3,2e-3)"
     inkscape:export-filename="C:\Users\recovr\Desktop\path4700.png"
     inkscape:export-xdpi="8"
     inkscape:export-ydpi="8" />
  <path
     style="opacity:1;fill:#ffffff;fill-opacity:1;stroke:#ffffff;stroke-width:0.76526707000000005;stroke-linejoin:miter;stroke-opacity:1"
     d="M 150.16879,335.7889 C 135.8583,331.85395 118.63979,326.87376 111.90544,324.72184 C 100.97014,321.22757 99.170299,320.85776 95.069562,321.26288 C 86.984232,322.06161 78.615233,322.78402 78.615784,322.68314 C 78.620919,321.73866 81.433796,316.25231 82.512516,315.08272 C 84.060284,313.40454 84.195132,312.12546 83.497958,305.73422 C 83.169575,302.72401 83.373189,301.21527 84.298282,299.8034 C 85.805575,297.50299 87.448305,297.41893 90.477959,299.48716 C 98.919376,305.24976 108.69054,309.02046 141.6894,319.24966 L 175.2997,329.6684 L 176.24274,334.26001 C 176.76144,336.78539 177.42906,339.79863 177.72637,340.95609 C 178.12163,342.49477 177.98747,343.04483 177.22741,343.00201 C 176.65568,342.96981 164.47929,339.72391 150.16879,335.78893 L 150.16879,335.7889 z"
     id="path4700"
     transform="scale(2e-3,2e-3)"
     inkscape:export-xdpi="8"
     inkscape:export-ydpi="8" />
</svg>
